<svg viewBox="0 0 230 75" fill="none" xmlns="http://www.w3.org/2000/svg">
<g clip-path="url(#clip0_5372_8388)">
<path fill-rule="evenodd" clip-rule="evenodd" d="M1.3477 15.8848C-0.000497708 13.5146 -0.355286 10.7198 0.37203 8.08414C1.11708 5.46622 2.89102 3.25513 5.28584 1.94617C5.74707 1.69853 6.19055 1.45089 6.63404 1.20324C11.2818 -1.34393 17.118 0.265744 19.7967 4.84711C25.0121 13.7445 32.6045 26.6926 32.6045 26.6926C32.6045 26.6926 40.197 13.7268 45.4124 4.82942C46.6896 2.65372 48.7651 1.07942 51.2132 0.44263C53.6612 -0.194162 56.2511 0.159611 58.4331 1.4332C58.9653 1.7339 59.4797 2.0523 60.0119 2.35301C64.7306 5.11244 66.3449 11.1443 63.6485 15.8848C57.9719 25.8613 48.4635 42.5771 41.492 54.853C39.6825 58.0193 36.3298 59.9827 32.6755 60.0004C29.0212 60.0004 25.6507 58.0723 23.8235 54.9061C16.7632 42.6832 7.18396 26.0205 1.3477 15.8848Z" fill="#ED2132"/>
<path fill-rule="evenodd" clip-rule="evenodd" d="M19.212 3.83828C19.212 3.83828 16.8349 1.43262 12.5065 1.43262C8.1781 1.43262 3.84969 6.43851 6.95408 11.8336C10.0762 17.2286 14.7772 25.2239 16.1254 27.2581C17.4558 29.2923 19.8151 31.6449 24.4097 31.6449C29.0042 31.6449 32.6053 26.7097 32.6053 26.7097L19.212 3.83828Z" fill="#A02C22"/>
<path fill-rule="evenodd" clip-rule="evenodd" d="M85.1316 43.9918H100.884C102.729 43.9918 104.219 42.506 104.219 40.6664C104.219 38.8267 102.729 37.3409 100.884 37.3409H85.1316V29.2925H100.955C102.8 29.2925 104.29 27.8067 104.29 25.9671C104.29 24.1275 102.8 22.6416 100.955 22.6416H81.8143C79.9694 22.6416 78.4793 24.1275 78.4793 25.9671V55.3657C78.4793 57.2053 79.9694 58.6911 81.8143 58.6911H100.902C102.747 58.6911 104.237 57.2053 104.237 55.3657C104.237 53.526 102.747 52.0402 100.902 52.0402H85.1493V43.9918H85.1316ZM115.076 29.2925V55.3657C115.076 57.2053 116.566 58.6911 118.411 58.6911C120.256 58.6911 121.746 57.2053 121.746 55.3657V29.2925H127.83C129.675 29.2925 131.165 27.8067 131.165 25.9671C131.165 24.1275 129.675 22.6416 127.83 22.6416H108.814C106.969 22.6416 105.479 24.1275 105.479 25.9671C105.479 27.8067 106.969 29.2925 108.814 29.2925H115.093H115.076ZM66.1504 25.9671V55.3657C66.1504 57.2053 67.6405 58.6911 69.4854 58.6911C71.3303 58.6911 72.8204 57.2053 72.8204 55.3657V25.9848C72.8204 24.1451 71.3303 22.6593 69.4854 22.6593C67.6405 22.6593 66.1504 24.1451 66.1504 25.9848V25.9671Z" fill="#ED2132"/>
<path fill-rule="evenodd" clip-rule="evenodd" d="M150.819 52.0753L154.58 58.6908C154.58 58.6908 151.919 58.9739 149.968 59.0269C143.759 59.1861 130.721 55.33 130.721 40.6661C130.721 26.0022 144.699 22.376 150.216 22.376C155.733 22.376 169.605 26.4797 169.605 40.6661C169.605 49.6519 164.177 53.7557 164.177 53.7557L166.962 58.3548H159.21L149.542 41.5151H157.135L159.849 46.0965C159.849 46.0965 161.357 44.3099 161.357 40.6661C161.357 37.0222 158.483 29.3807 150.394 29.3807C142.305 29.3807 139.182 35.9609 139.182 40.6661C139.182 52.3583 150.855 52.0753 150.855 52.0753H150.819Z" fill="#1E427E"/>
<path fill-rule="evenodd" clip-rule="evenodd" d="M173.297 23.048H189.884C195.844 23.048 203.986 26.851 203.986 35.8723C203.986 44.8935 196.695 47.2991 196.695 47.2991L204.749 58.443H195.702L182.309 39.0032H191.125L192.651 41.285C192.651 41.285 195.72 39.9583 195.72 35.9784C195.72 31.9984 192.172 29.7166 188.66 29.7166H181.457V58.3723H173.262L173.315 23.0303L173.297 23.048Z" fill="#1E427E"/>
<path d="M213.635 7.7832H204.748V10.0474H213.635V7.7832Z" fill="#414141"/>
<path d="M210.478 8.91504H207.906V18.007H210.478V8.91504Z" fill="#414141"/>
<path fill-rule="evenodd" clip-rule="evenodd" d="M214.912 7.7832H217.059L220.394 13.4613L223.817 7.7832H225.999V18.0073H223.605V12.4884L221.139 16.433H219.72L217.343 12.4707V18.0073H214.895L214.912 7.7832Z" fill="#414141"/>
</g>
<defs>
<clipPath id="clip0_5372_8388">
<rect width="226" height="60" fill="white"/>
</clipPath>
</defs>
</svg>
